<?xml version="1.0" encoding="utf-8"?>
<svg width="40" height="40px" viewBox="0 0 31.085571 48" version="1.1" xmlns:xlink="http://www.w3.org/1999/xlink" xmlns="http://www.w3.org/2000/svg">
  <path d="M23.3958 23.6529C23.3524 23.9311 23.2466 24.1959 23.0863 24.4275C22.926 24.659 22.7155 24.8512 22.4703 24.9898C21.9766 25.3086 21.5447 25.468 21.1077 25.6274C20.177 25.9488 19.1974 26.2702 18.1613 26.643C17.0687 27.0157 16.0891 27.3885 15.215 27.6585C14.1249 28.0313 13.0887 28.3526 12.1041 28.7254C11.3633 29.0425 10.6674 29.4556 10.0345 29.9544C9.4458 30.4877 8.93213 31.0983 8.50732 31.7695C8.07031 32.515 7.79517 33.4766 7.79517 34.5975C7.79517 36.842 8.34021 38.5491 9.43286 39.6161C10.5229 40.7396 12.5438 41.2718 15.5389 41.2718C18.5933 41.2718 20.6655 40.6856 21.7607 39.5107C22.8481 38.3357 23.3932 36.6826 23.3932 34.5487L23.3932 23.6529L23.3958 23.6529L23.3958 23.6529ZM15.5415 0C20.8892 0 24.8151 1.0155 27.3217 3.09802C29.8311 5.12909 31.0856 7.74121 31.0856 10.8366L31.0856 37.2148C31.0856 38.2817 30.8696 39.4567 30.4891 40.737C30.1035 42.0225 29.3425 43.1949 28.1418 44.2592C26.9977 45.3313 25.4166 46.2389 23.3984 46.933C21.3802 47.6272 18.7629 48 15.5441 48C12.3304 48 9.70801 47.6272 7.69238 46.933C5.67676 46.2389 4.09302 45.3313 2.94885 44.2592C1.88464 43.3001 1.07837 42.089 0.604126 40.737C0.218506 39.4592 0 38.2843 0 37.2174L0 33.001C0 30.7565 0.598999 28.674 1.79968 26.8563C3.00037 24.9898 4.68945 23.7095 6.87219 22.9073C7.96228 22.5345 9.21692 22.1618 10.6335 21.681C12.0527 21.1976 13.3588 20.7169 14.6699 20.2927C15.9811 19.8633 17.1252 19.434 18.1049 19.0586C18.6959 18.8221 19.2963 18.6094 19.9044 18.421L20.8866 17.9402C21.2722 17.7268 21.6501 17.4055 22.0332 16.9787C22.4137 16.5545 22.7402 16.0737 23.0153 15.5389C23.306 14.9599 23.4557 14.3203 23.4524 13.6724L23.4524 11.9627C23.4564 11.3361 23.325 10.716 23.0667 10.145C22.8508 9.50232 22.4137 8.91614 21.8147 8.38391C21.2156 7.84918 20.3955 7.42236 19.416 7.09845C18.4338 6.78223 17.1278 6.62024 15.6521 6.62024C12.5977 6.62024 10.5795 7.21155 9.4895 8.43536C8.56384 9.50488 8.0188 10.8392 7.91089 12.3329C7.91089 12.6543 7.63831 12.8677 7.30933 12.8677L0.658203 12.9757C0.500122 12.9764 0.348267 12.9146 0.235596 12.8039C0.122925 12.6931 0.0585938 12.5423 0.0565186 12.3844L0.0565186 10.8418C0.0565186 9.3429 0.331665 7.95459 0.930664 6.62024C1.53235 5.28333 2.46045 4.16498 3.71252 3.20087C4.96716 2.24188 6.60486 1.44232 8.56653 0.907532C10.4767 0.264832 12.8214 0 15.5466 0L15.5415 0L15.5415 0Z" id="Shape" fill="#FFFFFF" fill-rule="evenodd" stroke="none" />
</svg>