<?xml version="1.0" encoding="utf-8"?>
<svg width="40px" height="40px" viewBox="0 0 40 40" version="1.1" xmlns:xlink="http://www.w3.org/1999/xlink" xmlns="http://www.w3.org/2000/svg">
  <path d="M20 0C8.95459 0 0 8.95462 0 20C0 29.4438 6.54767 37.3539 15.35 39.4508C14.8946 39.3423 14.4431 39.2208 14 39.0823L14 34.5C14 34.5 13.25 34.75 12.25 34.75C9.45233 34.75 8.28998 32.2538 8 31C7.82385 30.2362 7.36383 29.5123 6.87 29.07C6.28003 28.5439 6.00385 28.5423 6 28.3623C5.99231 27.9846 6.50616 28 6.75 28C8 28 8.94769 29.33 9.3877 30.0177C10.4777 31.7154 11.6477 32 12.25 32C13 32 13.6477 31.8877 14.0939 31.6723C14.3 30.22 14.9462 28.9262 16 28C11.31 27.0623 8 24.3723 8 20C8 17.7477 8.90387 15.6777 10.41 14.0061C10.2562 13.57 10 12.6877 10 11.25C10 10.3 10.0662 9.13385 10.5 8C10.5 8 13.3523 8.02 16.0423 10.5677C17.2839 10.2061 18.6123 10 20 10C21.3877 10 22.7161 10.2061 23.9577 10.5677C26.6477 8.02 29.5 8 29.5 8C29.9362 9.13385 30 10.3 30 11.25C30 12.8 29.7938 13.7038 29.6677 14.0938C31.1277 15.75 32 17.7877 32 20C32 24.3723 28.6899 27.0623 24 28C25.2523 29.1 26 30.7023 26 32.5L26 39.0823C25.5569 39.2215 25.1062 39.3423 24.65 39.4508C33.4523 37.3539 40 29.4438 40 20C40 8.95462 31.0454 0 20 0L20 0ZM21.3946 39.9462C20.9338 39.9785 20.4692 40 20 40C20.4692 40 20.9331 39.9777 21.3946 39.9462L21.3946 39.9462ZM24.4508 39.4969C23.5554 39.7008 22.6377 39.8438 21.7007 39.9231C22.6377 39.8438 23.5554 39.7 24.4508 39.4969L24.4508 39.4969ZM20 40C19.5308 40 19.0662 39.9785 18.6054 39.9462C19.0669 39.9777 19.5308 40 20 40L20 40ZM18.2985 39.9231C17.3623 39.8438 16.4438 39.7008 15.5493 39.4969C16.4446 39.7 17.3623 39.8438 18.2985 39.9231L18.2985 39.9231Z" id="Shape" fill="#000000" fill-rule="evenodd" stroke="none" />
</svg>