<?xml version="1.0" encoding="utf-8"?>
<svg width="40px" height="40px" viewBox="0 0 30 30" version="1.1" xmlns:xlink="http://www.w3.org/1999/xlink" xmlns="http://www.w3.org/2000/svg">
  <defs>
    <path d="M30 0L30 0L30 30L0 30L0 0L30 0Z" id="path_1" />
    <clipPath id="clip_1">
      <use xlink:href="#path_1" clip-rule="evenodd" fill-rule="evenodd" />
    </clipPath>
  </defs>
  <g id="Instagram Old 3" clip-path="url(#clip_1)">
    <path d="M30 0L30 0L30 30L0 30L0 0L30 0Z" id="Instagram-Old-3" fill="none" stroke="none" />
    <path d="M3.98438 0C1.7334 0 0 1.7334 0 3.98438L0 26.0156C0 28.2666 1.7334 30 3.98438 30L26.0156 30C28.2666 30 30 28.2666 30 26.0156L30 3.98438C30 1.7334 28.2666 0 26.0156 0L3.98438 0ZM3.98438 2.5L26.0156 2.5C26.8896 2.5 27.5 3.11035 27.5 3.98438L27.5 10L21.1719 10C19.5947 8.44727 17.417 7.5 15 7.5C12.583 7.5 10.4053 8.44727 8.82813 10L2.5 10L2.5 3.98438C2.5 3.11035 3.11035 2.5 3.98438 2.5L3.98438 2.5ZM21.6406 3.75C21.3916 3.75 21.25 3.8916 21.25 4.14063L21.25 8.35938C21.25 8.6084 21.3916 8.75 21.6406 8.75L25.8594 8.75C26.1084 8.75 26.25 8.6084 26.25 8.35938L26.25 4.14063C26.25 3.8916 26.1084 3.75 25.8594 3.75L21.6406 3.75ZM15 10C18.501 10 21.25 12.749 21.25 16.25C21.25 19.751 18.501 22.5 15 22.5C11.499 22.5 8.75 19.751 8.75 16.25C8.75 12.749 11.499 10 15 10L15 10ZM15 12.5C14.624 12.5 14.2432 12.6172 13.8672 12.6172C14.4922 12.8662 15 13.623 15 14.375C15 15.376 14.126 16.25 13.125 16.25C12.373 16.25 11.7432 15.7422 11.3672 15.1172C11.3672 15.4932 11.25 15.874 11.25 16.25C11.25 18.374 12.876 20 15 20C17.124 20 18.75 18.374 18.75 16.25C18.75 14.126 17.124 12.5 15 12.5L15 12.5Z" id="Shape" fill="#FFFFFF" fill-rule="evenodd" stroke="none" />
  </g>
</svg>