<?xml version="1.0" encoding="utf-8"?>
<svg width="40px" height="40px" viewBox="0 0 40 40" version="1.1" xmlns:xlink="http://www.w3.org/1999/xlink" xmlns="http://www.w3.org/2000/svg">
  <path d="M35.238 0L4.76196 0C2.1333 0 0 2.13333 0 4.7619L0 35.2381C0 37.8667 2.1333 40 4.76196 40L35.238 40C37.8667 40 40 37.8667 40 35.2381L40 4.7619C40 2.13333 37.8667 0 35.238 0L35.238 0ZM12.381 15.2381L12.381 33.3333L6.66663 33.3333L6.66663 15.2381L12.381 15.2381L12.381 15.2381ZM6.66663 9.97144C6.66663 8.63809 7.80957 7.61905 9.5238 7.61905C11.238 7.61905 12.3143 8.63809 12.381 9.97144C12.381 11.3047 11.3143 12.381 9.5238 12.381C7.80957 12.381 6.66663 11.3047 6.66663 9.97144L6.66663 9.97144ZM33.3334 33.3333L27.619 33.3333C27.619 33.3333 27.619 24.5143 27.619 23.8095C27.619 21.9048 26.6666 20 24.2858 19.9619L24.2095 19.9619C21.9048 19.9619 20.9524 21.9238 20.9524 23.8095C20.9524 24.6762 20.9524 33.3333 20.9524 33.3333L15.238 33.3333L15.238 15.2381L20.9524 15.2381L20.9524 17.6762C20.9524 17.6762 22.7905 15.2381 26.4857 15.2381C30.2667 15.2381 33.3334 17.8381 33.3334 23.1048L33.3334 33.3333L33.3334 33.3333Z" id="Shape-3" fill="#000000" fill-rule="evenodd" stroke="none" />
</svg>