<?xml version="1.0" encoding="utf-8"?>
<svg width="50px" height="50px" viewBox="0 0 50 50" version="1.1" xmlns:xlink="http://www.w3.org/1999/xlink" xmlns="http://www.w3.org/2000/svg">
  <defs>
    <linearGradient gradientUnits="objectBoundingBox" x1="0.15592104" y1="-0.35534352" x2="0.5581316" y2="0.64447796" id="gradient_1">
      <stop offset="0%" stop-color="#889097" />
      <stop offset="100%" stop-color="#4C5963" />
    </linearGradient>
    <linearGradient gradientUnits="objectBoundingBox" x1="0.40582067" y1="0.3431469" x2="0.8463468" y2="1.7878861" id="gradient_2">
      <stop offset="0%" stop-color="#889097" />
      <stop offset="100%" stop-color="#4C5963" />
    </linearGradient>
    <linearGradient gradientUnits="objectBoundingBox" x1="0.18781805" y1="-0.5053769" x2="0.977787" y2="1.4726932" id="gradient_3">
      <stop offset="0%" stop-color="#889097" />
      <stop offset="100%" stop-color="#4C5963" />
    </linearGradient>
    <path d="M50 0L50 0L50 50L0 50L0 0L50 0Z" id="path_1" />
    <clipPath id="clip_1">
      <use xlink:href="#path_1" />
    </clipPath>
  </defs>
  <g id="C Sharp Logo" clip-path="url(#clip_1)">
    <path d="M50 0L50 0L50 50L0 50L0 0L50 0Z" id="C-Sharp-Logo" fill="none" stroke="none" />
    <path d="M23.8573 3.42291C24.5646 3.02604 25.4354 3.02604 26.1417 3.42291C29.6365 5.38437 40.1531 11.2885 43.649 13.25C44.3562 13.6458 44.7917 14.3792 44.7917 15.1729C44.7917 19.0958 44.7917 30.9031 44.7917 34.826C44.7917 35.6198 44.3562 36.3531 43.649 36.75C40.1542 38.7115 29.6375 44.6156 26.1417 46.5771C25.4344 46.9739 24.5635 46.9739 23.8573 46.5771C20.3625 44.6156 9.84583 38.7115 6.35 36.75C5.64375 36.3531 5.20833 35.6208 5.20833 34.8271C5.20833 30.9042 5.20833 19.0969 5.20833 15.174C5.20833 14.3802 5.64375 13.6469 6.35104 13.25C9.84479 11.2885 20.3635 5.38437 23.8573 3.42291L23.8573 3.42291Z" id="Shape" fill="url(#gradient_1)" fill-rule="evenodd" stroke="none" />
    <path d="M5.525 35.8375C5.24792 35.4667 5.20833 35.1146 5.20833 34.6406C5.20833 30.7406 5.20833 19.001 5.20833 15.1C5.20833 14.3104 5.64271 13.5813 6.34792 13.1875C9.83021 11.2375 20.3115 5.36772 23.7937 3.41667C24.499 3.02188 25.4542 3.03022 26.1594 3.42501C29.6417 5.37501 40.0875 11.1948 43.5698 13.1448C43.851 13.3031 44.0656 13.4938 44.2573 13.7448L5.525 35.8375L5.525 35.8375Z" id="Shape" fill="url(#gradient_2)" fill-rule="evenodd" stroke="none" />
    <path d="M25 10.4167C33.049 10.4167 39.5833 16.951 39.5833 25C39.5833 33.049 33.049 39.5833 25 39.5833C16.951 39.5833 10.4167 33.049 10.4167 25C10.4167 16.951 16.951 10.4167 25 10.4167L25 10.4167ZM25 17.7083C29.024 17.7083 32.2917 20.975 32.2917 25C32.2917 29.024 29.024 32.2917 25 32.2917C20.976 32.2917 17.7083 29.024 17.7083 25C17.7083 20.975 20.975 17.7083 25 17.7083L25 17.7083Z" id="Shape" fill="#FFFFFF" fill-rule="evenodd" stroke="none" />
    <path d="M44.2552 13.7552C44.7927 14.2583 44.7823 15.0167 44.7823 15.6135C44.7823 19.5667 44.749 30.8104 44.7917 34.7635C44.7959 35.176 44.6594 35.6104 44.4552 35.9375L24.5761 25L44.2552 13.7552L44.2552 13.7552Z" id="Shape" fill="url(#gradient_3)" fill-rule="evenodd" stroke="none" />
    <path d="M39.5833 20.8333L39.5833 22.9167L41.6667 22.9167L41.6667 23.9583L39.5833 23.9583L39.5833 26.0417L41.6667 26.0417L41.6667 27.0833L39.5833 27.0833L39.5833 29.1667L38.5417 29.1667L38.5417 27.0833L36.4583 27.0833L36.4583 29.1667L35.4167 29.1667L35.4167 27.0833L33.3333 27.0833L33.3333 26.0417L35.4167 26.0417L35.4167 23.9583L33.3333 23.9583L33.3333 22.9167L35.4167 22.9167L35.4167 20.8333L36.4583 20.8333L36.4583 22.9167L38.5417 22.9167L38.5417 20.8333L39.5833 20.8333M36.4583 26.0417L38.5417 26.0417L38.5417 23.9583L36.4583 23.9583L36.4583 26.0417M40.625 19.7917L39.5833 19.7917L38.5417 19.7917L37.5 19.7917L36.4583 19.7917L35.4167 19.7917L34.375 19.7917L34.375 20.8333L34.375 21.875L33.3333 21.875L32.2917 21.875L32.2917 22.9167L32.2917 23.9583L32.2917 25L32.2917 26.0417L32.2917 27.0833L32.2917 28.125L33.3333 28.125L34.375 28.125L34.375 29.1667L34.375 30.2083L35.4167 30.2083L36.4583 30.2083L37.5 30.2083L37.5 29.1667L37.5 28.125L37.5 29.1667L37.5 30.2083L38.5417 30.2083L39.5833 30.2083L40.625 30.2083L40.625 29.1667L40.625 28.125L41.6667 28.125L42.7083 28.125L42.7083 27.0833L42.7083 26.0417L42.7083 25L41.6667 25L40.625 25L41.6667 25L42.7083 25L42.7083 23.9583L42.7083 22.9167L42.7083 21.875L41.6667 21.875L40.625 21.875L40.625 20.8333L40.625 19.7917L40.625 19.7917L40.625 19.7917Z" id="Shape" fill="#000000" fill-opacity="0.05" fill-rule="evenodd" stroke="none" />
    <path d="M39.5833 20.8333L39.5833 22.9167L41.6667 22.9167L41.6667 23.9583L39.5833 23.9583L39.5833 26.0417L41.6667 26.0417L41.6667 27.0833L39.5833 27.0833L39.5833 29.1667L38.5417 29.1667L38.5417 27.0833L36.4583 27.0833L36.4583 29.1667L35.4167 29.1667L35.4167 27.0833L33.3333 27.0833L33.3333 26.0417L35.4167 26.0417L35.4167 23.9583L33.3333 23.9583L33.3333 22.9167L35.4167 22.9167L35.4167 20.8333L36.4583 20.8333L36.4583 22.9167L38.5417 22.9167L38.5417 20.8333L39.5833 20.8333M36.4583 26.0417L38.5417 26.0417L38.5417 23.9583L36.4583 23.9583L36.4583 26.0417M40.1042 20.3125L39.5833 20.3125L38.5417 20.3125L38.0208 20.3125L38.0208 20.8333L38.0208 22.3958L36.9792 22.3958L36.9792 20.8333L36.9792 20.3125L36.4583 20.3125L35.4167 20.3125L34.8958 20.3125L34.8958 20.8333L34.8958 22.3958L33.3333 22.3958L32.8125 22.3958L32.8125 22.9167L32.8125 23.9583L32.8125 24.4792L33.3333 24.4792L34.8958 24.4792L34.8958 25.5208L33.3333 25.5208L32.8125 25.5208L32.8125 26.0417L32.8125 27.0833L32.8125 27.6042L33.3333 27.6042L34.8958 27.6042L34.8958 29.1667L34.8958 29.6875L35.4167 29.6875L36.4583 29.6875L36.9792 29.6875L36.9792 29.1667L36.9792 27.6042L38.0208 27.6042L38.0208 29.1667L38.0208 29.6875L38.5417 29.6875L39.5833 29.6875L40.1042 29.6875L40.1042 29.1667L40.1042 27.6042L41.6667 27.6042L42.1875 27.6042L42.1875 27.0833L42.1875 26.0417L42.1875 25.5208L41.6667 25.5208L40.1042 25.5208L40.1042 24.4792L41.6667 24.4792L42.1875 24.4792L42.1875 23.9583L42.1875 22.9167L42.1875 22.3958L41.6667 22.3958L40.1042 22.3958L40.1042 20.8333L40.1042 20.3125L40.1042 20.3125L40.1042 20.3125ZM36.9792 24.4792L38.0208 24.4792L38.0208 25.5208L36.9792 25.5208L36.9792 24.4792L36.9792 24.4792L36.9792 24.4792Z" id="Shape" fill="#000000" fill-opacity="0.07" fill-rule="evenodd" stroke="none" />
    <path d="M41.6667 23.9583L41.6667 22.9167L39.5833 22.9167L39.5833 20.8333L38.5417 20.8333L38.5417 22.9167L36.4583 22.9167L36.4583 20.8333L35.4167 20.8333L35.4167 22.9167L33.3333 22.9167L33.3333 23.9583L35.4167 23.9583L35.4167 26.0417L33.3333 26.0417L33.3333 27.0833L35.4167 27.0833L35.4167 29.1667L36.4583 29.1667L36.4583 27.0833L38.5417 27.0833L38.5417 29.1667L39.5833 29.1667L39.5833 27.0833L41.6667 27.0833L41.6667 26.0417L39.5833 26.0417L39.5833 23.9583L41.6667 23.9583L41.6667 23.9583ZM38.5417 26.0417L36.4583 26.0417L36.4583 23.9583L38.5417 23.9583L38.5417 26.0417L38.5417 26.0417Z" id="Shape" fill="#FFFFFF" fill-rule="evenodd" stroke="none" />
    <g id="Group" transform="translate(9.375 9.375)">
      <path d="M15.625 1.04167C20.9667 1.04167 25.6271 3.92813 28.1677 8.21563L21.8417 11.8302C20.5594 9.73646 18.2573 8.33333 15.625 8.33333C11.6 8.33333 8.33333 11.6 8.33333 15.625C8.33333 19.649 11.601 22.9167 15.625 22.9167C18.3021 22.9167 20.6375 21.4667 21.9052 19.3135L28.2927 22.8281C25.7812 27.2312 21.0521 30.2083 15.625 30.2083C7.57604 30.2083 1.04167 23.674 1.04167 15.625C1.04167 7.57604 7.57604 1.04167 15.625 1.04167M15.625 0C7.00938 0 0 7.00938 0 15.625C0 24.2406 7.00938 31.25 15.625 31.25C21.2156 31.25 26.4167 28.2208 29.1979 23.3438L29.7219 22.425L28.7948 21.9146L22.4073 18.4L21.5208 17.9125L21.0073 18.7844C19.8854 20.6906 17.8229 21.875 15.625 21.875C12.1792 21.875 9.375 19.0708 9.375 15.625C9.375 12.1792 12.1792 9.375 15.625 9.375C17.8115 9.375 19.8031 10.4958 20.9531 12.374L21.4813 13.2365L22.3583 12.7354L28.6844 9.12083L29.6031 8.59583L29.0635 7.68541C26.2552 2.94479 21.1062 0 15.625 0L15.625 0L15.625 0Z" id="Shape" fill="#000000" fill-opacity="0.05" fill-rule="evenodd" stroke="none" />
      <path d="M15.625 1.04167C20.9667 1.04167 25.6271 3.92813 28.1677 8.21563L21.8417 11.8302C20.5594 9.73646 18.2573 8.33333 15.625 8.33333C11.6 8.33333 8.33333 11.6 8.33333 15.625C8.33333 19.649 11.601 22.9167 15.625 22.9167C18.3021 22.9167 20.6375 21.4667 21.9052 19.3135L28.2927 22.8281C25.7812 27.2313 21.0521 30.2083 15.625 30.2083C7.57604 30.2083 1.04167 23.674 1.04167 15.625C1.04167 7.57604 7.57604 1.04167 15.625 1.04167M15.625 0.520833C7.29687 0.520833 0.520833 7.29687 0.520833 15.625C0.520833 23.9531 7.29687 30.7292 15.625 30.7292C21.0292 30.7292 26.0562 27.8 28.7448 23.0865L29.0073 22.6271L28.5437 22.3719L22.1563 18.8573L21.7135 18.6135L21.4573 19.049C20.2406 21.1135 18.0062 22.3958 15.625 22.3958C11.8917 22.3958 8.85417 19.3583 8.85417 15.625C8.85417 11.8917 11.8917 8.85417 15.625 8.85417C17.9948 8.85417 20.1521 10.0687 21.3979 12.1021L21.6615 12.5333L22.1 12.2823L28.426 8.66771L28.8854 8.40521L28.6156 7.95C25.9 3.36771 20.9229 0.520833 15.625 0.520833L15.625 0.520833L15.625 0.520833Z" id="Shape" fill="#000000" fill-opacity="0.07" fill-rule="evenodd" stroke="none" />
    </g>
  </g>
</svg>