<?xml version="1.0" encoding="utf-8"?>
<svg width="50px" height="50px" viewBox="0 0 50 50" version="1.1" xmlns:xlink="http://www.w3.org/1999/xlink" xmlns="http://www.w3.org/2000/svg">
  <defs>
    <linearGradient gradientUnits="objectBoundingBox" x1="0.27194852" y1="-0.2049695" x2="0.74660146" y2="0.9552457" id="gradient_1">
      <stop offset="0%" stop-color="#2AA4F4" />
      <stop offset="100%" stop-color="#007AD9" />
    </linearGradient>
    <path d="M50 0L50 0L50 50L0 50L0 0L50 0Z" id="path_1" />
    <clipPath id="clip_1">
      <use xlink:href="#path_1" />
    </clipPath>
  </defs>
  <g id="CSS3" clip-path="url(#clip_1)">
    <path d="M50 0L50 0L50 50L0 50L0 0L50 0Z" id="CSS3" fill="none" stroke="none" />
    <path d="M7.49167 7.475L10.2281 38.4854C10.3417 39.774 11.2385 40.8604 12.4823 41.2156L23.5688 44.3833C24.5042 44.651 25.4948 44.651 26.4302 44.3833L37.5167 41.2156C38.7604 40.8604 39.6573 39.775 39.7708 38.4854L42.5073 7.475C42.6156 6.25625 41.6563 5.20833 40.4333 5.20833L9.56667 5.20833C8.34375 5.20833 7.38438 6.25625 7.49167 7.475L7.49167 7.475Z" id="Shape" fill="url(#gradient_1)" stroke="none" />
    <path d="M25 8.33333L25 41.5625L35.2875 38.6229C36.1177 38.3854 36.7156 37.6604 36.7906 36.801L39.1719 9.46563C39.225 8.85625 38.7458 8.33333 38.1344 8.33333L25 8.33333L25 8.33333Z" id="Shape" fill="#35C1F1" stroke="none" />
    <path d="M34.4792 13.5417L25 13.5417L25 17.7083L30.1042 17.7083L29.7917 21.875L25 21.875L25 26.0417L29.5833 26.0417L29.2708 30.7292L25 32.1875L25 36.5625L33.2292 33.8542L33.9583 21.875L33.9583 21.875L34.4792 13.5417L34.4792 13.5417Z" id="Shape" fill="#FFFFFF" stroke="none" />
    <path d="M25 13.5417L25 17.7083L15.7292 17.7083L15.4167 13.5417L25 13.5417L25 13.5417ZM20.2083 21.875L20.4167 26.0417L25 26.0417L25 21.875L20.2083 21.875L20.2083 21.875ZM20.625 28.125L16.4583 28.125L16.7708 33.8542L25 36.5625L25 32.1875L20.7292 30.7292L20.625 28.125L20.625 28.125Z" id="Shape" fill="#D6E0E9" fill-rule="evenodd" stroke="none" />
    <path d="M34.4792 13.5417L33.9583 21.875L33.2292 33.8542L25 36.5625L16.7708 33.8542L16.4583 28.125L20.625 28.125L20.7292 30.7292L25 32.1875L29.2708 30.7292L29.5833 26.0417L25 26.0417L20.4167 26.0417L20.2083 21.875L25 21.875L29.7917 21.875L30.1042 17.7083L25 17.7083L15.7292 17.7083L15.4167 13.5417L25 13.5417L34.4792 13.5417M35.5875 12.5L34.4792 12.5L25 12.5L15.4167 12.5L14.2938 12.5L14.3781 13.6198L14.6906 17.7865L14.7625 18.75L15.7292 18.75L25 18.75L28.9813 18.75L28.825 20.8333L25 20.8333L20.2083 20.8333L19.1135 20.8333L19.1677 21.9271L19.376 26.0937L19.426 27.0833L16.4583 27.0833L15.3583 27.0833L15.4188 28.1813L15.7313 33.9104L15.7698 34.6208L16.4458 34.8438L24.675 37.5521L25 37.6594L25.326 37.5521L33.5552 34.8438L34.226 34.6229L34.2688 33.9177L34.9979 21.9385L35.5188 13.6073L35.5875 12.5L35.5875 12.5L35.5875 12.5ZM21.626 27.0833L25 27.0833L28.4698 27.0833L28.2771 29.9677L25 31.0865L21.7417 29.974L21.6656 28.0833L21.626 27.0833L21.626 27.0833L21.626 27.0833Z" id="Shape" fill="#000000" fill-opacity="0.05" fill-rule="evenodd" stroke="none" />
    <path d="M34.4792 13.5417L33.9583 21.875L33.2292 33.8542L25 36.5625L16.7708 33.8542L16.4583 28.125L20.625 28.125L20.7292 30.7292L25 32.1875L29.2708 30.7292L29.5833 26.0417L25 26.0417L20.4167 26.0417L20.2083 21.875L25 21.875L29.7917 21.875L30.1042 17.7083L25 17.7083L15.7292 17.7083L15.4167 13.5417L25 13.5417L34.4792 13.5417M35.0333 13.0208L34.4792 13.0208L25 13.0208L15.4167 13.0208L14.8552 13.0208L14.8969 13.5802L15.2094 17.7469L15.2458 18.2292L15.7292 18.2292L25 18.2292L29.5427 18.2292L29.3083 21.3542L25 21.3542L20.2083 21.3542L19.6604 21.3542L19.6875 21.901L19.8958 26.0677L19.9208 26.5625L20.4167 26.5625L25 26.5625L29.0271 26.5625L28.775 30.3479L25 31.6375L21.2354 30.3521L21.1458 28.1042L21.125 27.6042L20.625 27.6042L16.4583 27.6042L15.9083 27.6042L15.9385 28.1531L16.251 33.8823L16.2708 34.2375L16.6083 34.349L24.8375 37.0573L25 37.1104L25.1625 37.0573L33.3917 34.349L33.7271 34.2385L33.749 33.8854L34.4781 21.9063L34.999 13.574L35.0333 13.0208L35.0333 13.0208L35.0333 13.0208Z" id="Shape" fill="#000000" fill-opacity="0.07" fill-rule="evenodd" stroke="none" />
  </g>
</svg>