<?xml version="1.0" encoding="utf-8"?>
<svg width="50px" height="50px" viewBox="0 0 50 50" version="1.1" xmlns:xlink="http://www.w3.org/1999/xlink" xmlns="http://www.w3.org/2000/svg">
  <path d="M48.9474 22.5L27.5 1.05264C26.8422 0.394745 25.921 0 25 0C25 0 25 0 25 0C24.079 0 23.1578 0.394745 22.5 1.05264L17.8948 5.6579L23.2894 11.0526C23.8158 10.7895 24.3422 10.6579 25 10.6579C27.2368 10.6579 28.9474 12.3684 28.9474 14.6053C28.9474 15.2632 28.8158 15.7895 28.5526 16.3158L33.8158 21.5789C34.3422 21.3158 34.8684 21.1842 35.5264 21.1842C37.7632 21.1842 39.4736 22.8947 39.4736 25.1316C39.4736 27.3684 37.7632 29.0789 35.5264 29.0789C33.2894 29.0789 31.579 27.3684 31.579 25.1316C31.579 24.4737 31.7106 23.9474 31.9736 23.4211L26.7106 18.1579C26.579 18.1579 26.4474 18.2895 26.3158 18.2895L26.3158 31.9737C27.8948 32.5 28.9474 33.9474 28.9474 35.6579C28.9474 37.8947 27.2368 39.6053 25 39.6053C22.7632 39.6053 21.0526 37.8947 21.0526 35.6579C21.0526 33.9474 22.1052 32.5 23.6842 31.9737L23.6842 18.1579C22.1052 17.6316 21.0526 16.1842 21.0526 14.4737C21.0526 13.8158 21.1842 13.2895 21.4474 12.7632L16.0526 7.36841L1.05261 22.5C0.394775 23.1579 0 24.0789 0 25C0 25.9211 0.394775 26.8421 1.05261 27.5L22.5 48.9474C22.5 48.9474 22.5 48.9474 22.5 48.9474C23.1578 49.6053 24.079 50 25 50C25.921 50 26.8422 49.6053 27.5 48.9474L48.9474 27.5C49.6052 26.8421 50 25.9211 50 25C50 24.0789 49.6052 23.1579 48.9474 22.5L48.9474 22.5Z" id="Shape" fill="#F4511E" stroke="none" />
</svg>