<?xml version="1.0" encoding="utf-8"?>
<svg width="50px" height="50px" viewBox="0 0 50 50" version="1.1" xmlns:xlink="http://www.w3.org/1999/xlink" xmlns="http://www.w3.org/2000/svg">
  <defs>
    <path d="M50 0L50 0L50 50L0 50L0 0L50 0Z" id="path_1" />
    <clipPath id="clip_1">
      <use xlink:href="#path_1" />
    </clipPath>
  </defs>
  <g id="Java" clip-path="url(#clip_1)">
    <path d="M50 0L50 0L50 50L0 50L0 0L50 0Z" id="Java" fill="none" stroke="none" />
    <path d="M24.6354 25.9354C23.5958 24.2594 22.8417 22.8698 21.7969 20.2531C20.0302 15.8333 32.5417 11.8396 27.4688 4.16563C29.6677 9.46667 19.576 12.7437 18.6385 17.1583C17.7812 21.2187 24.6302 25.9354 24.6354 25.9354L24.6354 25.9354Z" id="Shape" fill="#F44336" stroke="none" />
    <path d="M24.8729 17.9896C24.6729 20.6104 27.1948 22.0073 27.2677 23.9219C27.326 25.4802 25.7604 26.7792 25.7604 26.7792C25.7604 26.7792 28.6021 26.2208 29.4885 23.8438C30.4729 21.2042 27.5781 19.3969 27.876 17.2833C28.1542 15.2646 34.1583 11.5094 34.1583 11.5094C34.1583 11.5094 25.324 12.0948 24.8729 17.9896L24.8729 17.9896Z" id="Shape" fill="#F44336" stroke="none" />
    <path d="M33.421 22.3388C35.2481 21.7197 36.7887 23.475 36.7887 25.4975C36.7887 30.0564 32.6002 34.3655 32.6002 34.3655C32.6002 34.3655 39.0846 33.1994 39.0846 25.7144C39.0846 20.7642 35.9002 19.5274 33.421 22.3388L33.421 22.3388ZM30.3428 26.0161C30.3428 26.0161 32.3647 23.8428 32.9033 23.0271C27.9418 24.6159 16.6136 24.8296 16.6136 23.4499C16.6136 22.1785 20.2667 20.8758 20.2667 20.8758C20.2667 20.8758 12.1698 20.6998 12.1698 24.3032C12.1698 28.0591 22.7688 28.3278 30.3428 26.0161L30.3428 26.0161ZM29.0991 29.4356C24.4021 31.7913 15.751 31.0386 18.3136 27.8751C17.0656 27.8751 15.2156 29.3885 15.2156 30.8437C15.2156 33.7619 24.5719 36.0155 31.497 31.7426L29.0991 29.4356L29.0991 29.4356ZM19.4646 34.4141C17.7604 34.4141 16.6573 36.0704 16.6573 37.2773C16.6573 41.0348 26.824 41.4135 30.8522 37.5995L28.2917 35.0348C25.2823 37.0306 17.7229 37.3056 19.4646 34.4141L19.4646 34.4141ZM37.7929 40.5319C37.7929 39.061 36.6939 38.368 36.3002 38.0364C38.621 46.48 13.0532 45.8247 13.0532 40.8399C13.0532 39.7069 14.9355 38.5974 16.6751 39.1223L15.1959 37.8038C11.7292 36.9835 9.375 39.2826 9.375 41.1369C9.375 49.7848 37.7929 49.3684 37.7929 40.5319L37.7929 40.5319ZM40.6252 43.6308C36.3064 50.0661 25.3553 52.4108 14.3427 48.4349C25.3553 55.5113 40.5731 51.526 40.6252 43.6308L40.6252 43.6308Z" id="Group" fill="#1565C0" fill-rule="evenodd" stroke="none" />
  </g>
</svg>