<?xml version="1.0" encoding="utf-8"?>
<svg width="50px" height="50px" viewBox="0 0 50 50" version="1.1" xmlns:xlink="http://www.w3.org/1999/xlink" xmlns="http://www.w3.org/2000/svg">
  <defs>
    <path d="M50 0L50 0L50 50L0 50L0 0L50 0Z" id="path_1" />
    <clipPath id="clip_1">
      <use xlink:href="#path_1" />
    </clipPath>
  </defs>
  <g id=".NET Framework" clip-path="url(#clip_1)">
    <path d="M50 0L50 0L50 50L0 50L0 0L50 0Z" id=".NET-Framework" fill="none" stroke="none" />
    <path d="M45.8333 25C45.8333 30.9312 43.3531 36.2823 39.375 40.0844L39.3687 40.0906C35.625 43.6458 30.5667 45.8333 25 45.8333C13.4958 45.8333 4.16667 36.5042 4.16667 25C4.16667 19.4396 6.34062 14.3875 9.89583 10.651C9.90208 10.6375 9.90937 10.6313 9.91562 10.625C13.7177 6.64687 19.0687 4.16667 25 4.16667C36.5042 4.16667 45.8333 13.4958 45.8333 25L45.8333 25Z" id="Shape" fill="#6A1B9A" stroke="none" />
    <path d="M39.974 39.4396C39.7792 39.6615 39.5771 39.876 39.375 40.0844L39.3687 40.0906C35.625 43.6458 30.5667 45.8333 25 45.8333C13.4958 45.8333 4.16667 36.5042 4.16667 25C4.16667 19.4396 6.34062 14.3875 9.89583 10.651C9.90208 10.6375 9.90937 10.6312 9.91562 10.625C10.124 10.4229 10.3385 10.2219 10.5604 10.026L39.974 39.4396L39.974 39.4396Z" id="Shape" fill="#7B1FA2" stroke="none" />
    <path d="M8.98542 28.4177C8.73958 28.4219 8.50313 28.3229 8.33438 28.1448C8.16042 27.9729 8.06458 27.7385 8.06771 27.4938C8.06563 27.25 8.1625 27.0156 8.33438 26.8427C8.50208 26.6615 8.73854 26.5594 8.98542 26.5625C9.23229 26.5615 9.46771 26.6635 9.63646 26.8427C9.8125 27.0135 9.91042 27.249 9.90938 27.4938C9.91146 27.7396 9.8125 27.975 9.63646 28.1448C9.46562 28.3208 9.23021 28.4198 8.98542 28.4177L8.98542 28.4177Z" id="Shape" fill="#FFFFFF" stroke="none" />
    <path d="M21.9208 28.2552L20.2146 28.2552L14.1146 18.7896C13.9625 18.5562 13.8365 18.3073 13.7365 18.0479L13.6844 18.0479C13.7427 18.5885 13.7646 19.1323 13.749 19.675L13.749 28.2552L12.3625 28.2552L12.3625 16.3865L14.1656 16.3865L20.1031 25.6833C20.35 26.0698 20.5115 26.3344 20.5844 26.4781L20.6167 26.4781C20.5479 25.899 20.5198 25.3167 20.5323 24.7333L20.5323 16.3875L21.9188 16.3875L21.9188 28.2552L21.9208 28.2552Z" id="Shape" fill="#FFFFFF" stroke="none" />
    <path d="M31.3094 28.2552L25.001 28.2552L25.001 16.3865L31.0167 16.3865L31.0167 17.6427L26.4208 17.6427L26.4208 21.5885L30.7052 21.5885L30.7052 22.8385L26.4208 22.8385L26.4208 26.9531L31.3167 26.9531L31.3094 28.2552L31.3094 28.2552Z" id="Shape" fill="#FFFFFF" stroke="none" />
    <path d="M40.626 17.6437L37.176 17.6437L37.176 28.2562L35.7896 28.2562L35.7896 17.6437L32.3781 17.6437L32.3781 16.3875L40.6271 16.3875L40.6271 17.6437L40.626 17.6437Z" id="Shape" fill="#FFFFFF" stroke="none" />
    <path d="M21.1729 36.3281C20.7031 36.5563 20.1844 36.6656 19.6625 36.6469C18.9604 36.6781 18.2802 36.4052 17.7938 35.8979C17.3156 35.3625 17.0635 34.6625 17.0906 33.9448C17.0552 33.1594 17.3396 32.3938 17.8781 31.8219C18.4042 31.2833 19.1313 30.9906 19.8833 31.0146C20.3281 30.999 20.7719 31.0771 21.1854 31.2427L21.1854 31.8938C20.7875 31.6729 20.3386 31.5615 19.8833 31.5688C19.3031 31.5521 18.7438 31.7906 18.3531 32.2198C17.9469 32.6823 17.7365 33.2844 17.7677 33.899C17.7375 34.4813 17.9333 35.0531 18.3146 35.4938C18.6844 35.8917 19.2104 36.1083 19.7531 36.0865C20.2531 36.1 20.7469 35.9729 21.1792 35.7219L21.1729 36.3281L21.1729 36.3281Z" id="Shape" fill="#F2F2F2" stroke="none" />
    <path d="M23.8354 36.6469C23.3114 36.6635 22.8052 36.4521 22.4489 36.0677C22.0927 35.6708 21.9083 35.1489 21.9344 34.6156C21.901 34.0521 22.0958 33.4979 22.475 33.0792C22.8614 32.7021 23.3875 32.501 23.9271 32.526C24.4375 32.4989 24.9344 32.6958 25.2875 33.0667C25.6333 33.4833 25.8083 34.0167 25.776 34.5573C25.8031 35.1062 25.6135 35.6437 25.2489 36.0552C24.8854 36.4469 24.3698 36.6635 23.8354 36.6469L23.8354 36.6469ZM23.8812 33.0854C23.5187 33.0698 23.1687 33.2208 22.9312 33.4958C22.6812 33.8187 22.5562 34.2208 22.5792 34.6292C22.5562 35.025 22.6812 35.4146 22.9312 35.7229C23.1719 35.9937 23.5208 36.1417 23.8812 36.1271C24.2354 36.1479 24.5792 36.0042 24.8125 35.7364C25.0489 35.4135 25.1646 35.0166 25.1375 34.6166C25.1635 34.2146 25.0479 33.8167 24.8125 33.4906C24.5823 33.2167 24.2375 33.0677 23.8812 33.0854L23.8812 33.0854Z" id="Shape" fill="#F2F2F2" fill-rule="evenodd" stroke="none" />
    <path d="M28.8156 33.2813C28.675 33.1896 28.5083 33.1458 28.3406 33.1573C28.0739 33.1667 27.8302 33.3083 27.6896 33.5354C27.4958 33.8427 27.4021 34.2021 27.4229 34.5646L27.4229 36.5563L26.7719 36.5563L26.7719 32.65L27.4229 32.65L27.4229 33.4635L27.4229 33.4635C27.4948 33.2115 27.6364 32.9854 27.8333 32.8125C28.0031 32.6656 28.2208 32.5844 28.4448 32.5844C28.5708 32.5792 28.6969 32.5969 28.8156 32.6365L28.8156 33.2813L28.8156 33.2813Z" id="Shape" fill="#F2F2F2" stroke="none" />
    <path d="M32.6312 34.7656L29.8771 34.7656C29.8583 35.1292 29.9771 35.4875 30.2094 35.7687C30.4531 36.0125 30.7896 36.1396 31.1333 36.1208C31.575 36.1167 32.001 35.9625 32.3448 35.6844L32.3448 36.2698C31.9427 36.5354 31.4656 36.6656 30.9844 36.6406C30.4927 36.6656 30.0156 36.4698 29.6823 36.1062C29.3437 35.6833 29.1739 35.15 29.2073 34.6083C29.1844 34.0667 29.3677 33.5354 29.7219 33.124C30.0479 32.7469 30.526 32.5365 31.0239 32.551C31.4739 32.526 31.9104 32.7083 32.2094 33.0458C32.5094 33.4406 32.6573 33.9312 32.626 34.426L32.6312 34.7656L32.6312 34.7656ZM31.9802 34.2385C31.9937 33.9365 31.901 33.6396 31.7198 33.399C31.5396 33.1948 31.276 33.0844 31.0031 33.099C30.7198 33.0958 30.4479 33.2115 30.2542 33.4177C30.0396 33.6448 29.9052 33.9344 29.8698 34.2448L31.9802 34.2385L31.9802 34.2385Z" id="Shape" fill="#F2F2F2" fill-rule="evenodd" stroke="none" />
  </g>
</svg>