<?xml version="1.0" encoding="utf-8"?>
<svg width="50px" height="50px" viewBox="0 0 50 50" version="1.1" xmlns:xlink="http://www.w3.org/1999/xlink" xmlns="http://www.w3.org/2000/svg">
  <defs>
    <linearGradient gradientUnits="objectBoundingBox" x1="0.40341333" y1="0.014327627" x2="0.59666365" y2="0.98558146" id="gradient_1">
      <stop offset="0.3%" stop-color="#A33094" />
      <stop offset="99.8%" stop-color="#6D246B" />
    </linearGradient>
    <linearGradient gradientUnits="objectBoundingBox" x1="0.33552343" y1="-0.00038675964" x2="0.5910845" y2="0.9708892" id="gradient_2">
      <stop offset="0%" stop-color="#E288C5" />
      <stop offset="99.8%" stop-color="#D76DBB" />
    </linearGradient>
    <linearGradient gradientUnits="objectBoundingBox" x1="0.40162432" y1="0.013483942" x2="0.5986475" y2="0.9863703" id="gradient_3">
      <stop offset="0.6%" stop-color="#E9A0CB" />
      <stop offset="99.8%" stop-color="#E48DC7" />
    </linearGradient>
    <path d="M50 0L50 0L50 50L0 50L0 0L50 0Z" id="path_1" />
    <clipPath id="clip_1">
      <use xlink:href="#path_1" />
    </clipPath>
  </defs>
  <g id="Microsoft Power Apps" clip-path="url(#clip_1)">
    <path d="M50 0L50 0L50 50L0 50L0 0L50 0Z" id="Microsoft-Power-Apps" fill="none" stroke="none" />
    <path d="M21.3542 47.9167C20.7635 47.9167 20.201 47.6667 19.8052 47.2271L1.99688 27.4396C1.39271 26.7677 1.06146 25.901 1.06146 24.999C1.06146 24.0969 1.39375 23.2312 1.99792 22.5594L19.8052 2.77292C20.5958 1.89375 22.1125 1.89375 22.9031 2.77292L40.7125 22.5604C40.7125 22.5604 40.7125 22.5604 40.7125 22.5615C41.9625 23.951 41.9625 26.049 40.7125 27.4385L22.9031 47.2271C22.5073 47.6667 21.9448 47.9167 21.3542 47.9167L21.3542 47.9167Z" id="Shape" fill="url(#gradient_1)" stroke="none" />
    <path d="M41.6458 25C41.6458 25.875 41.3333 26.75 40.7083 27.4375L24.6458 45.3021L24.2917 45.6875L17.9896 38.6875C16.9167 37.4896 16.9167 35.6979 17.9896 34.5L25.6667 25.9688C26.1667 25.4167 26.1667 24.5833 25.6667 24.0313L17.9896 15.5C16.9167 14.3021 16.9167 12.5104 17.9896 11.3125L24.2917 4.3125L24.6458 4.69792L40.7083 22.5625C41.3333 23.25 41.6458 24.125 41.6458 25L41.6458 25Z" id="Shape" fill="#000000" fill-opacity="0.05" stroke="none" />
    <path d="M41.6458 25C41.6458 25.875 41.3333 26.75 40.7083 27.4375L24.6458 45.3021L18.375 38.3333C17.4792 37.3438 17.4792 35.8438 18.375 34.8542L26.0521 26.3229C26.7292 25.5625 26.7292 24.4375 26.0521 23.6771L18.375 15.1458C17.4792 14.1563 17.4792 12.6563 18.375 11.6667L24.6458 4.69792L40.7083 22.5625C41.3333 23.25 41.6458 24.125 41.6458 25L41.6458 25Z" id="Shape" fill="#000000" fill-opacity="0.05" stroke="none" />
    <path d="M28.6271 47.9167L28.6271 47.9167C28.0365 47.9167 27.474 47.6667 27.0781 47.2271L18.7615 37.9865C18.0479 37.1938 18.049 35.9917 18.7615 35.199L26.4396 26.6688C27.2958 25.7177 27.2958 24.2833 26.4396 23.3323L18.7615 14.8021C18.049 14.0094 18.0479 12.8073 18.7615 12.0146L27.0781 2.77396C27.8688 1.8948 29.3854 1.8948 30.176 2.77396L47.9854 22.5615C47.9854 22.5615 47.9854 22.5615 47.9854 22.5625C49.2354 23.9521 49.2354 26.049 47.9865 27.4396L30.175 47.2271C29.7802 47.6667 29.2177 47.9167 28.6271 47.9167L28.6271 47.9167Z" id="Shape" fill="url(#gradient_2)" stroke="none" />
    <path d="M39.574 35.7531C38.9833 35.7531 38.4208 35.5031 38.026 35.0635L31.1635 27.4396C30.5583 26.7667 30.226 25.899 30.2271 24.9958C30.2271 24.0948 30.5604 23.2302 31.1635 22.5594L38.025 14.9365C38.8146 14.0573 40.3323 14.0573 41.1219 14.9365L47.9844 22.5604C49.2344 23.9521 49.2344 26.0479 47.9854 27.4385L41.1219 35.0635C40.7281 35.5031 40.1646 35.7531 39.574 35.7531L39.574 35.7531Z" id="Shape" fill="url(#gradient_3)" stroke="none" />
  </g>
</svg>