<?xml version="1.0" encoding="utf-8"?>
<svg width="50px" height="50px" viewBox="0 0 50 50" version="1.1" xmlns:xlink="http://www.w3.org/1999/xlink" xmlns="http://www.w3.org/2000/svg">
  <defs>
    <path d="M50 0L50 0L50 50L0 50L0 0L50 0Z" id="path_1" />
    <clipPath id="clip_1">
      <use xlink:href="#path_1" />
    </clipPath>
  </defs>
  <g id="Python" clip-path="url(#clip_1)">
    <path d="M50 0L50 0L50 50L0 50L0 0L50 0Z" id="Python" fill="none" stroke="none" />
    <path d="M25.049 5.20833C23.4292 5.21354 22.3063 5.35625 20.949 5.59062C16.9407 6.28854 16.2104 7.75416 16.2104 10.4552L16.2104 14.5833L25.5854 14.5833L25.5854 16.6667L15.8542 16.6667L11.3229 16.6667C8.57711 16.6667 6.17399 17.9604 5.41253 21.0615C4.55211 24.6208 4.51357 26.85 5.41253 30.5667C6.09482 33.3385 7.59795 35.4167 10.3448 35.4167L14.1282 35.4167L14.1282 30.1C14.1282 27.0104 16.9261 23.9583 20.1323 23.9583L27.6698 23.9583C30.2979 23.9583 32.8782 22.0187 32.8782 19.399L32.8782 10.4552C32.8782 7.91458 31.0459 6.01458 28.4844 5.58854C28.5479 5.58229 26.6552 5.20208 25.049 5.20833L25.049 5.20833ZM19.8573 9.37499C20.7125 9.37499 21.4198 10.0802 21.4198 10.9396C21.4198 11.8073 20.7125 12.5 19.8573 12.5C18.9854 12.5 18.2948 11.8083 18.2948 10.9396C18.2948 10.0833 18.9854 9.37499 19.8573 9.37499L19.8573 9.37499Z" id="Shape" fill="#0277BD" fill-rule="evenodd" stroke="none" />
    <path d="M24.0396 44.7917C25.6594 44.7865 26.7823 44.6438 28.1396 44.4094C32.1479 43.7115 32.8781 42.2458 32.8781 39.5448L32.8781 35.4167L23.5031 35.4167L23.5031 33.3333L33.2354 33.3333L37.7667 33.3333C40.5125 33.3333 42.9156 32.0396 43.6771 28.9385C44.5375 25.3792 44.576 23.15 43.6771 19.4333C42.9937 16.6615 41.4906 14.5833 38.7437 14.5833L34.9604 14.5833L34.9604 19.9C34.9604 22.9896 32.1625 26.0417 28.9562 26.0417L21.4187 26.0417C18.7906 26.0417 16.2104 27.9813 16.2104 30.601L16.2104 39.5448C16.2104 42.0854 18.0427 43.9854 20.6042 44.4115C20.5406 44.4177 22.4333 44.7979 24.0396 44.7917L24.0396 44.7917ZM29.2323 40.625C28.3771 40.625 27.6698 39.9198 27.6698 39.0604C27.6698 38.1927 28.3771 37.5 29.2323 37.5C30.1042 37.5 30.7948 38.1917 30.7948 39.0604C30.7948 39.9167 30.1031 40.625 29.2323 40.625L29.2323 40.625Z" id="Shape" fill="#FFC107" fill-rule="evenodd" stroke="none" />
  </g>
</svg>