<?xml version="1.0" encoding="utf-8"?>
<svg width="50px" height="50px" viewBox="0 0 50 50" version="1.1" xmlns:xlink="http://www.w3.org/1999/xlink" xmlns="http://www.w3.org/2000/svg">
  <defs>
    <path d="M50 0L50 0L50 50L0 50L0 0L50 0Z" id="path_1" />
    <clipPath id="clip_1">
      <use xlink:href="#path_1" />
    </clipPath>
  </defs>
  <g id="React" clip-path="url(#clip_1)">
    <path d="M50 0L50 0L50 50L0 50L0 0L50 0Z" id="React" fill="none" stroke="none" />
    <path d="M29.0625 25C29.0625 27.2456 27.2456 29.0625 25 29.0625C22.7544 29.0625 20.9375 27.2456 20.9375 25C20.9375 22.7544 22.7544 20.9375 25 20.9375C27.2456 20.9375 29.0625 22.7544 29.0625 25L29.0625 25Z" id="Shape" fill="#8BB7F0" stroke="none" />
    <path d="M25 29.375C22.5881 29.375 20.625 27.4125 20.625 25C20.625 22.5875 22.5881 20.625 25 20.625C27.4119 20.625 29.375 22.5875 29.375 25C29.375 27.4125 27.4119 29.375 25 29.375L25 29.375ZM25 21.25C22.9319 21.25 21.25 22.9319 21.25 25C21.25 27.0681 22.9319 28.75 25 28.75C27.0681 28.75 28.75 27.0681 28.75 25C28.75 22.9319 27.0681 21.25 25 21.25L25 21.25Z" id="Shape" fill="#4E7AB5" fill-rule="evenodd" stroke="none" />
    <g id="Group" transform="translate(0 2.5018759)">
      <path d="M15.2963 44.6875C14.2269 44.6875 13.2531 44.4425 12.4013 43.96C10.9762 43.1519 9.99125 41.7594 9.4725 39.8225C8.86938 37.5681 8.94125 34.5737 9.68 31.1487C3.7225 29.0994 0.3125 25.955 0.3125 22.4981C0.3125 19.0406 3.72188 15.8969 9.67938 13.8481C8.94063 10.4225 8.86812 7.42812 9.47125 5.17375C9.99 3.23625 10.975 1.84375 12.3994 1.03625C13.2506 0.55375 14.225 0.308749 15.2944 0.308749C18.0369 0.308749 21.4762 2.015 25.0013 5.12C28.5262 2.01812 31.9644 0.313124 34.7038 0.313124C35.7731 0.313124 36.7469 0.558124 37.5988 1.04062C39.0219 1.8475 40.0075 3.2375 40.5263 5.1725C41.13 7.42625 41.0575 10.4212 40.3181 13.8475C46.2769 15.8962 49.6875 19.0406 49.6875 22.4981C49.6875 25.9556 46.2769 29.1 40.3181 31.1494C41.0569 34.575 41.1294 37.5694 40.5256 39.8231C40.0069 41.7587 39.0225 43.1487 37.6006 43.9556C36.7481 44.4381 35.7738 44.6831 34.705 44.6831C31.9638 44.6831 28.5244 42.9781 25.0006 39.8775C21.4756 42.9819 18.0369 44.6875 15.2963 44.6875L15.2963 44.6875ZM12.0856 31.8769C11.4662 34.825 11.3969 37.3437 11.8881 39.1762C12.2269 40.4425 12.8137 41.3206 13.6344 41.7856C14.105 42.0525 14.6644 42.1881 15.2963 42.1881C17.4175 42.1881 20.21 40.7619 23.1844 38.165C21.6938 36.6637 20.2388 34.9644 18.8544 33.1081C16.46 32.8481 14.185 32.4344 12.0856 31.8769L12.0856 31.8769ZM26.8163 38.1637C29.79 40.7581 32.5831 42.1831 34.7044 42.1838C35.3363 42.1838 35.8956 42.0481 36.3675 41.7813C37.1856 41.3175 37.7713 40.4413 38.1094 39.1769C38.6006 37.3431 38.5319 34.825 37.9125 31.8775C35.8113 32.435 33.5356 32.8488 31.1419 33.1088C29.7581 34.965 28.305 36.6637 26.8163 38.1637L26.8163 38.1637ZM22.2288 33.3688C23.1363 34.4788 24.065 35.5144 25 36.4562C25.9325 35.515 26.8619 34.4794 27.7688 33.3688C26.8369 33.4131 25.9088 33.4356 25 33.4356C24.0906 33.4356 23.1619 33.4131 22.2288 33.3688L22.2288 33.3688ZM20.2181 30.735C21.7775 30.8681 23.3856 30.9356 25 30.9356C26.6156 30.9356 28.2219 30.8681 29.7787 30.7356C30.7075 29.4331 31.5931 28.0681 32.4125 26.6763C33.205 25.3294 33.9506 23.9237 34.6294 22.4975C33.9525 21.075 33.2075 19.67 32.4131 18.32C31.5956 16.9313 30.71 15.5663 29.7787 14.2606C28.2231 14.1281 26.6169 14.0606 25 14.0606C23.3825 14.0606 21.7756 14.1281 20.2206 14.2612C19.2894 15.565 18.4025 16.93 17.5837 18.3206C16.79 19.67 16.045 21.075 15.3675 22.4994C16.0438 23.9206 16.7887 25.3256 17.5831 26.6769C18.3981 28.0612 19.2838 29.4256 20.2181 30.735L20.2181 30.735ZM35.9319 25.485C35.4906 26.3263 35.0331 27.1512 34.5663 27.9437C34.0956 28.745 33.595 29.5487 33.075 30.3412C34.5588 30.1125 35.9781 29.8194 37.3069 29.4662C36.9381 28.1856 36.4763 26.85 35.9319 25.485L35.9319 25.485ZM12.69 29.4656C14.0194 29.8181 15.4381 30.1119 16.92 30.3406C16.3969 29.5431 15.8962 28.7388 15.4288 27.9438C14.9631 27.1519 14.505 26.3281 14.0644 25.4869C13.5225 26.8456 13.0613 28.18 12.69 29.4656L12.69 29.4656ZM37.385 22.4981C38.34 24.6175 39.1181 26.7125 39.7025 28.7338C44.3288 27.1063 47.1875 24.7319 47.1875 22.4981C47.1875 20.2644 44.3288 17.89 39.7025 16.2625C39.1194 18.2838 38.3406 20.3788 37.385 22.4981L37.385 22.4981ZM10.295 16.2638C5.67063 17.8906 2.8125 20.265 2.8125 22.4981C2.8125 24.7319 5.67063 27.1063 10.2962 28.7331C10.88 26.7112 11.6581 24.6162 12.6119 22.4994C11.6575 20.3819 10.8794 18.2869 10.295 16.2638L10.295 16.2638ZM12.6894 15.5306C13.0606 16.8144 13.5219 18.1494 14.0644 19.5106C14.5044 18.6719 14.9619 17.8475 15.4294 17.0531C15.8994 16.2538 16.4 15.45 16.9219 14.6556C15.4381 14.8837 14.0194 15.1775 12.6894 15.5306L12.6894 15.5306ZM33.0763 14.655C33.5994 15.4531 34.1 16.2569 34.5675 17.0531C35.0338 17.845 35.4919 18.6694 35.9331 19.5106C36.4763 18.15 36.9375 16.815 37.3088 15.53C35.9775 15.1769 34.5588 14.8831 33.0763 14.655L33.0763 14.655ZM15.2944 2.80875C14.6625 2.80875 14.1038 2.94375 13.6338 3.21125C12.8138 3.67625 12.2262 4.55437 11.8869 5.82062C11.3963 7.655 11.465 10.1731 12.085 13.12C14.185 12.5625 16.4613 12.1481 18.8563 11.8881C20.2419 10.0312 21.6969 8.33312 23.1856 6.83312C20.2106 4.235 17.4162 2.80875 15.2944 2.80875L15.2944 2.80875ZM31.1425 11.8875C33.5362 12.1475 35.8119 12.5612 37.9131 13.1188C38.5331 10.1713 38.6025 7.6525 38.1106 5.81875C37.7719 4.555 37.1856 3.67875 36.3669 3.215C35.8956 2.94812 35.3363 2.8125 34.7038 2.8125C32.5831 2.8125 29.7912 4.23812 26.8169 6.83312C28.3044 8.3325 29.7581 10.0312 31.1425 11.8875L31.1425 11.8875ZM25 11.5606C25.9087 11.5606 26.8369 11.5831 27.7694 11.6275C26.8631 10.5187 25.9344 9.48375 25.0012 8.54125C24.0656 9.485 23.1375 10.52 22.2313 11.6275C23.1631 11.5831 24.0913 11.5606 25 11.5606L25 11.5606Z" id="Shape" fill="#8BB7F0" fill-rule="evenodd" stroke="none" />
      <path d="M15.2944 0.621249C18.1031 0.621249 21.5419 2.44 25.0019 5.53812C28.4612 2.4425 31.8981 0.625624 34.7044 0.625624C35.7188 0.625624 36.6413 0.856874 37.4456 1.3125C38.7931 2.07625 39.7281 3.40187 40.2244 5.25375C40.8975 7.70187 40.7562 10.7162 39.9531 14.0537C45.7169 15.9794 49.375 19.0175 49.375 22.4981C49.375 25.9787 45.7169 29.0169 39.9525 30.9431C40.7906 34.5512 40.9312 37.6469 40.2238 39.7425C39.7275 41.5938 38.7931 42.92 37.4469 43.6838C36.6413 44.14 35.9094 44.3731 34.8956 44.3731C34.895 44.3731 34.6356 44.3731 34.635 44.3731C31.8275 44.3731 28.4587 42.5544 25 39.46C21.5406 42.5575 18.1031 44.375 15.2956 44.375C14.2813 44.375 13.3588 44.1437 12.5544 43.6881C11.2056 42.9225 10.27 41.595 9.77437 39.7419C9.03062 37.4187 9.18062 34.365 10.0456 30.9425C4.2825 29.0162 0.625 25.9787 0.625 22.4981C0.625 19.0181 4.2825 15.98 10.045 14.0537C9.61563 12.1419 9.34125 10.3669 9.33187 8.74812C9.32438 7.46937 9.49875 6.28 9.77375 5.25437C10.27 3.40062 11.205 2.07312 12.5537 1.30812C13.3575 0.851874 14.28 0.621249 15.2944 0.621249M11.8488 13.5069C14.0219 12.91 16.435 12.4587 19.0256 12.1837C20.5144 10.1775 22.0725 8.37375 23.6419 6.81875C20.5969 4.1025 17.6319 2.49562 15.2944 2.49562C14.6075 2.49562 13.9975 2.64437 13.4794 2.93875C12.5838 3.44687 11.9469 4.38875 11.585 5.73937C11.0487 7.74062 11.1706 10.4456 11.8488 13.5069M38.1494 13.5063C38.8275 10.445 38.9494 7.73938 38.4131 5.73812C38.0519 4.39 37.415 3.45 36.5212 2.94312C36.0025 2.64875 35.3906 2.5 34.7044 2.5C32.3688 2.5 29.4056 4.105 26.3613 6.81875C27.93 8.37375 29.4863 10.1775 30.9738 12.1831C33.5631 12.4581 35.9762 12.9094 38.1494 13.5063M21.5481 11.9769C22.6744 11.91 23.8038 11.8519 24.9781 11.8519C26.1525 11.8519 27.325 11.9106 28.4513 11.9769C27.3213 10.5525 26.1613 9.25125 25.0006 8.09937C23.84 9.25125 22.6794 10.5525 21.5481 11.9769M25 31.2481C26.7256 31.2481 28.3775 31.1725 29.9488 31.0344C30.8981 29.7112 31.8163 28.3062 32.6813 26.835C33.5269 25.3981 34.2919 23.9437 34.975 22.4981C34.2919 21.0525 33.5269 19.5988 32.6819 18.1625C31.8163 16.6906 30.8988 15.2862 29.9488 13.9631C28.3781 13.8237 26.7263 13.7481 25 13.7481C23.2738 13.7481 21.6213 13.8237 20.05 13.9625C19.0994 15.2856 18.1806 16.6906 17.315 18.1619C16.47 19.5987 15.705 21.0531 15.0219 22.4987C15.705 23.9444 16.4694 25.3981 17.3144 26.8344C18.18 28.3056 19.0981 29.7106 20.0481 31.0337C21.62 31.1725 23.2731 31.2481 25 31.2481M35.9663 20.2562C36.6694 18.5631 37.2513 16.9006 37.695 15.3106C36.0994 14.8719 34.3369 14.5094 32.4275 14.2437C33.07 15.1981 33.6956 16.1875 34.2975 17.2112C34.8937 18.2231 35.4481 19.2406 35.9663 20.2562M14.0306 20.2569C14.5481 19.2413 15.1031 18.2238 15.6981 17.2113C16.3006 16.1875 16.9269 15.1988 17.57 14.2444C15.6606 14.5094 13.8981 14.8725 12.3025 15.3113C12.7462 16.9013 13.3281 18.5631 14.0306 20.2569M39.4925 29.1369C44.54 27.4269 47.5 24.9144 47.5 22.4981C47.5 20.0819 44.54 17.5694 39.4925 15.8594C38.8969 17.9875 38.0744 20.2238 37.0425 22.4975C38.0744 24.7719 38.8969 27.0081 39.4925 29.1369M10.5062 29.1362C11.1012 27.0087 11.9231 24.7725 12.955 22.4994C11.9231 20.2256 11.1006 17.9888 10.5056 15.8606C5.45875 17.5706 2.5 20.0825 2.5 22.4981C2.5 24.9144 5.45937 27.4262 10.5062 29.1362M32.4275 30.7525C34.3369 30.4875 36.0994 30.125 37.695 29.6856C37.2506 28.0956 36.6688 26.4331 35.9663 24.7394C35.4481 25.755 34.8931 26.7725 34.2975 27.785C33.6956 28.8087 33.07 29.7981 32.4275 30.7525M17.5681 30.7519C16.9256 29.7975 16.3 28.8087 15.6975 27.7856C15.1025 26.7738 14.5481 25.7569 14.0306 24.7419C13.3281 26.4344 12.7469 28.0963 12.3031 29.6856C13.8981 30.1237 15.66 30.4862 17.5681 30.7519M15.2963 42.5C17.6331 42.5 20.5969 40.8937 23.6413 38.1787C22.0706 36.6231 20.5131 34.8187 19.0238 32.8119C16.4344 32.5375 14.0225 32.0863 11.85 31.4894C11.1725 34.5506 11.0506 37.2556 11.5862 39.2569C11.9475 40.6069 12.585 41.5487 13.48 42.0569C13.9975 42.3512 14.6094 42.5 15.2963 42.5M34.7044 42.4963L34.7044 42.4963C35.3913 42.4963 36.0019 42.3475 36.5213 42.0531C37.415 41.5463 38.0506 40.6063 38.4113 39.2575C38.9475 37.2556 38.8256 34.5506 38.1481 31.49C35.975 32.0869 33.5625 32.5381 30.9725 32.8125C29.485 34.8188 27.9281 36.6225 26.3594 38.1781C29.4038 40.8906 32.3675 42.4956 34.7044 42.4963M25 36.8981C26.1606 35.7456 27.3206 34.4437 28.4513 33.0194C27.3256 33.0863 26.2269 33.2275 25.0519 33.2275C23.8762 33.2275 22.6725 33.0863 21.5462 33.0194C22.6775 34.4444 23.8387 35.7463 25 36.8981M15.0725 0.0431243C13.9481 0.0431243 13.1444 0.254374 12.2456 0.763749C10.7462 1.61437 9.71125 3.07062 9.17 5.0925C8.57 7.33437 8.62187 10.2812 9.3175 13.6431C3.38688 15.7412 0 18.9513 0 22.4981C0 26.0456 3.3875 29.255 9.31812 31.3531C8.6225 34.715 8.57063 37.6619 9.17125 39.9038C9.71188 41.9244 10.7463 43.3806 12.2469 44.2325C13.1469 44.7425 14.2281 44.9594 15.3519 44.9594C18.1563 44.9594 21.4475 43.375 25.0006 40.2931C28.5531 43.3719 31.9 44.9956 34.7038 44.9963C35.8281 44.9963 36.8544 44.7381 37.7544 44.2281C39.2525 43.3788 40.2863 41.9244 40.8269 39.905C41.4275 37.6625 41.3756 34.7156 40.68 31.3544C46.6119 29.2556 50 26.0456 50 22.4981C50 18.9506 46.6125 15.7406 40.6806 13.6425C41.3769 10.28 41.4281 7.33313 40.8275 5.09125C40.2863 3.07188 39.2519 1.6175 37.7531 0.768125C36.8538 0.25875 35.8275 0 34.7038 0C31.9006 0 28.5544 1.62437 25.0012 4.70437C21.4475 1.62187 18.085 0.0412497 15.28 0.0412497L15.0725 0.0431243L15.0725 0.0431243ZM12.325 12.7337C12.0363 11.2813 11.8425 9.92 11.8319 8.72625C11.8225 7.65125 11.97 6.71562 12.1881 5.90062C12.505 4.71812 13.0431 3.90437 13.7875 3.48187C14.21 3.24187 14.725 3.07937 15.3019 3.07937C17.29 3.07937 19.9063 4.44062 22.7288 6.85063C21.3406 8.27125 19.9838 9.8625 18.6875 11.5912C16.4469 11.8412 14.3106 12.2244 12.325 12.7337L12.325 12.7337L12.325 12.7337ZM27.2738 6.85187C30.0956 4.44375 32.7181 3.125 34.7038 3.125C35.2813 3.125 35.7894 3.24687 36.2125 3.48687C36.9556 3.90812 37.4931 4.72 37.8094 5.9C38.3556 7.66125 38.285 10.0025 37.6731 12.7331C35.6875 12.2244 33.5519 11.8406 31.3119 11.5919C30.0163 9.86375 28.6606 8.2725 27.2738 6.85187L27.2738 6.85187L27.2738 6.85187ZM22.9206 11.2856C23.6056 10.4731 24.3013 9.70437 25.0006 8.98687C25.7 9.70438 26.395 10.4731 27.0794 11.2856C26.38 11.2606 25.6844 11.2481 25 11.2481C24.3156 11.2481 23.6206 11.2606 22.9206 11.2856L22.9206 11.2856L22.9206 11.2856ZM20.3906 14.5606C21.8937 14.4362 23.4425 14.3475 25 14.3475C26.5569 14.3475 28.1056 14.4362 29.6081 14.5606C30.5031 15.8225 31.3556 17.1394 32.1431 18.4787C32.9069 19.7775 33.6262 21.1281 34.2825 22.4975C33.6256 23.8675 32.9063 25.2188 32.1425 26.5175C31.3544 27.8575 30.5025 29.1737 29.6075 30.4356C28.1056 30.56 26.5569 30.7269 25 30.7269C23.4419 30.7269 21.8925 30.5594 20.3888 30.435C19.4931 29.1737 18.6406 27.8569 17.8525 26.5169C17.0888 25.2188 16.37 23.8681 15.7138 22.4981C16.37 21.1281 17.0894 19.7769 17.8531 18.4781C18.6419 17.1387 19.495 15.8219 20.3906 14.5606L20.3906 14.5606L20.3906 14.5606ZM35.8888 18.7631C35.5456 18.1269 35.1938 17.5019 34.8369 16.8944C34.4806 16.2887 34.1075 15.6806 33.7213 15.0762C34.83 15.265 35.8994 15.4906 36.9175 15.7512C36.6256 16.73 36.2813 17.7375 35.8888 18.7631L35.8888 18.7631L35.8888 18.7631ZM13.08 15.7512C14.0981 15.4906 15.1675 15.265 16.2763 15.0762C15.8894 15.6806 15.5163 16.2887 15.16 16.8937C14.8031 17.5012 14.4513 18.1262 14.1081 18.7625C13.7156 17.7381 13.3719 16.7306 13.08 15.7512L13.08 15.7512L13.08 15.7512ZM37.7281 22.4975C38.6125 20.5212 39.345 18.565 39.9094 16.6687C44.2238 18.2431 46.875 20.4487 46.875 22.4981C46.875 24.5475 44.2238 26.7531 39.9094 28.3275C39.3444 26.4306 38.6125 24.4737 37.7281 22.4975L37.7281 22.4975L37.7281 22.4975ZM10.0888 28.3269C5.77563 26.7525 3.125 24.5469 3.125 22.4981C3.125 20.4494 5.77563 18.2437 10.0881 16.6694C10.6525 18.5662 11.3844 20.5225 12.2687 22.4987C11.385 24.4744 10.6531 26.4306 10.0888 28.3269L10.0888 28.3269L10.0888 28.3269ZM33.7206 29.9206C34.1069 29.3156 34.4806 28.7075 34.8362 28.1025C35.1937 27.495 35.5456 26.8694 35.8887 26.2331C36.2812 27.2587 36.625 28.2669 36.9175 29.2462C35.8987 29.5056 34.8294 29.7319 33.7206 29.9206L33.7206 29.9206L33.7206 29.9206ZM13.0806 29.245C13.3725 28.2662 13.7163 27.2594 14.1081 26.235C14.4506 26.8706 14.8025 27.4956 15.1594 28.1025C15.515 28.7075 15.8881 29.315 16.275 29.92C15.1669 29.7306 14.0981 29.505 13.0806 29.245L13.0806 29.245L13.0806 29.245ZM15.2963 41.875C14.7188 41.875 14.2113 41.7531 13.7881 41.5131C13.0444 41.0906 12.5063 40.2775 12.19 39.095C11.6706 37.3169 11.7294 34.975 12.3263 32.2619C14.3113 32.7706 16.4463 33.1544 18.6856 33.4031C19.9825 35.1319 21.3394 36.7237 22.7281 38.1456C19.9063 40.5563 17.2831 41.8756 15.2963 41.875L15.2963 41.875L15.2963 41.875L15.2963 41.875ZM31.3113 33.4044C33.5513 33.155 35.6869 32.7719 37.6725 32.2631C38.3631 35.2256 38.4175 37.5869 37.8081 39.0956C37.4925 40.2763 36.9556 41.0881 36.2131 41.5088C35.7894 41.7488 35.2819 41.8706 34.705 41.8706L34.705 42.4956L34.7044 41.8706C32.7169 41.8706 30.0938 40.5519 27.2725 38.145C28.66 36.7244 30.0156 35.1331 31.3113 33.4044L31.3113 33.4044L31.3113 33.4044ZM25 36.0106C24.3 35.2931 23.6037 34.5238 22.9187 33.7106C23.6187 33.7356 24.315 33.7481 25 33.7481C25.6844 33.7481 26.38 33.7356 27.0794 33.7106C26.395 34.5238 25.6994 35.2931 25 36.0106L25 36.0106L25 36.0106Z" id="Shape" fill="#4E7AB5" fill-rule="evenodd" stroke="none" />
    </g>
  </g>
</svg>