<?xml version="1.0" encoding="utf-8"?>
<svg width="50px" height="50px" viewBox="0 0 50 50" version="1.1" xmlns:xlink="http://www.w3.org/1999/xlink" xmlns="http://www.w3.org/2000/svg">
  <defs>
    <path d="M50 0L50 0L50 50L0 50L0 0L50 0Z" id="path_1" />
    <clipPath id="clip_1">
      <use xlink:href="#path_1" />
    </clipPath>
  </defs>
  <g id="Tanjiro Kamado" clip-path="url(#clip_1)">
    <path d="M50 0L50 0L50 50L0 50L0 0L50 0Z" id="Tanjiro-Kamado" fill="none" stroke="none" />
    <path d="M39.8552 31.6448C39.8552 31.6448 41.6667 36.4583 46.7865 35.5823C43.75 32.2917 43.3865 28.1792 43.3865 28.1792L39.8552 31.6448L39.8552 31.6448Z" id="Shape" fill="#AA2C2C" stroke="none" />
    <path d="M44.9479 35.6563C41.3438 35.2917 39.9479 31.8854 39.8646 31.6563L42.3438 29.2188C42.3438 29.2188 42.6458 32.5833 44.9479 35.6563L44.9479 35.6563Z" id="Shape" fill="#3B2B28" stroke="none" />
    <path d="M38.5417 8.33333C38.5417 8.33333 42.7083 7.29167 44.7917 12.5C41.6667 11.4583 36.4583 11.4583 36.4583 11.4583L38.5417 8.33333L38.5417 8.33333Z" id="Shape" fill="#AA2C2C" stroke="none" />
    <path d="M37.5 29.1667C37.5 29.1667 41.6667 33.3333 47.9167 29.1667C47.9167 29.1667 43.75 28.125 42.7083 22.9167L37.6448 22.626L37.5 29.1667L37.5 29.1667Z" id="Shape" fill="#AA2C2C" stroke="none" />
    <path d="M46.3854 30.0417C41 32.6667 37.5 29.1667 37.5 29.1667L37.625 23.7292L41.6667 23.9583C42.4896 28.0729 45.2604 29.5833 46.3854 30.0417L46.3854 30.0417Z" id="Shape" fill="#3B2B28" stroke="none" />
    <path d="M35.4167 39.5833L38.0208 39.5833C39.0042 39.5833 39.9302 39.1198 40.5208 38.3333L41.4583 37.0833C42.2698 36.001 42.7083 34.6854 42.7083 33.3333L42.7083 33.0292C42.7083 32.5437 42.5958 32.0656 42.3781 31.6312L42.3781 31.6312C41.9427 30.7594 41.051 30.2083 40.075 30.2083L35.4167 30.2083L35.4167 39.5833L35.4167 39.5833Z" id="Shape" fill="#FFBCA7" stroke="none" />
    <path d="M7.29167 18.75C6.25 18.75 6.25 18.75 6.25 16.6667C6.25 13.5417 9.375 12.5 9.375 12.5L21.875 12.5L18.75 17.7083C18.75 17.7083 8.33333 18.75 7.29167 18.75L7.29167 18.75Z" id="Shape" fill="#AA2C2C" stroke="none" />
    <path d="M14.5833 39.5833L11.9792 39.5833C10.9958 39.5833 10.0698 39.1198 9.47917 38.3333L8.54167 37.0833C8.16563 36.5812 7.86979 36.0302 7.66042 35.4469C7.46354 34.901 8.33333 33.4708 8.33333 33.3333L8.33333 31.9875C8.33333 31.5021 7.62188 31.6313 7.62188 31.6313L7.62188 31.6313C8.05729 30.7594 8.94896 30.2083 9.925 30.2083L14.5833 30.2083L14.5833 39.5833L14.5833 39.5833Z" id="Shape" fill="#FFBCA7" stroke="none" />
    <path d="M20.8333 4.16667C20.8333 4.16667 28.125 3.125 30.2083 3.125C32.2917 3.125 35.4167 5.20833 35.4167 5.20833L36.4583 18.75L21.875 18.75L20.8333 4.16667L20.8333 4.16667Z" id="Shape" fill="#AA2C2C" stroke="none" />
    <path d="M11.4583 15.625C11.4583 15.625 7.29167 14.5833 7.29167 10.4167C7.29167 8.33333 8.82292 6.52604 11.4583 5.20833C13.5417 4.16667 15.625 3.125 15.625 0C15.625 0 18.75 3.125 18.75 7.29167C18.75 11.5865 18.75 15.625 18.75 15.625L11.4583 15.625L11.4583 15.625Z" id="Shape" fill="#AA2C2C" stroke="none" />
    <path d="M14.8927 16.6667C14.2667 16.4458 9.375 13.5417 9.375 10.4167C9.375 8.81771 11.2635 7.63437 12.3906 7.07187C13.5323 6.5 16.6667 4.51979 18.3292 3.56875C18.6625 4.38854 16.6667 6.28958 16.6667 7.29167L16.6667 14.5833L14.8927 16.6667L14.8927 16.6667Z" id="Shape" fill="#3B2B28" stroke="none" />
    <path d="M11.4583 35.4167C11.4583 35.4167 10.4167 36.4583 5.20833 35.4167C7.29167 35.4167 8.33333 31.25 8.33333 30.2083L11.4583 30.2083L11.4583 35.4167L11.4583 35.4167Z" id="Shape" fill="#AA2C2C" stroke="none" />
    <path d="M11.4583 30.5521L11.4583 35.4167C11.4583 35.4167 10.7187 36.1563 7.36458 35.7604C9.39583 35.6563 10.4167 31.5833 10.4167 30.5521C10.4167 30.5521 11.4583 30.5521 11.4583 30.5521L11.4583 30.5521Z" id="Shape" fill="#3B2B28" stroke="none" />
    <path d="M17.7083 14.5833C17.7083 14.5833 13.5417 12.5 13.5417 9.375C13.5417 7.29167 15.3792 5.45417 17.7083 3.125C20.8333 0 23.9583 2.08333 29.1667 1.04167C29.1667 1.04167 23.9583 6.25 25 10.4167C26.0417 14.5833 25 14.5833 25 14.5833L17.7083 14.5833L17.7083 14.5833Z" id="Shape" fill="#AA2C2C" stroke="none" />
    <path d="M23.5177 12.5L19.2885 13.5417C18.2437 12.9104 16.6667 10.5781 16.6667 9.375C16.6667 8.15417 18.3146 6.50625 20.2229 4.59792C21.2479 3.57292 22.1979 3.38542 23.6979 3.38542C24.1125 3.38542 24.4 3.43021 24.6333 3.43646L22.9167 6.25L27.0833 6.25C29.6542 5.98646 30.9156 5.20833 31.25 5.20833C32.0719 5.20833 33.8458 5.85 35.3115 6.48854L23.5177 12.5L23.5177 12.5Z" id="Shape" fill="#3B2B28" stroke="none" />
    <path d="M11.4583 31.25C11.4583 31.25 8.33333 34.375 2.08333 30.2083C2.08333 30.2083 7.29167 29.1667 8.33333 23.9583L10.4167 22.9167L11.4583 31.25L11.4583 31.25Z" id="Shape" fill="#AA2C2C" stroke="none" />
    <path d="M11.4583 31.25C11.4583 31.25 8.97917 33.7292 4.03125 31.3333C4.48958 31.2188 9.26042 30.0417 10.25 25.0833L10.6667 24.875L11.4583 31.25L11.4583 31.25Z" id="Shape" fill="#3B2B28" stroke="none" />
    <path d="M12.5 21.875L11.4583 25C4.16667 30.2083 0 25 0 25C0 25 4.16667 25 5.20833 19.7917C5.85417 16.5615 10.4167 16.6667 10.4167 16.6667L15.625 16.6667L12.5 21.875L12.5 21.875Z" id="Shape" fill="#AA2C2C" stroke="none" />
    <path d="M14.375 18.75L12.5 21.875L11.4583 25C7.8125 27.6042 4.94792 27.6042 3 26.9479C4.29167 26.625 6.3875 25.4917 7.29167 21.875C8.33333 17.7083 13.5417 15.625 13.5417 15.625L14.375 18.75L14.375 18.75Z" id="Shape" fill="#3B2B28" stroke="none" />
    <path d="M37.5 20.8333L38.5417 23.9583C45.8333 29.1667 50 23.9583 50 23.9583C50 23.9583 45.8333 26.0417 43.75 15.625C43.1042 12.3948 39.5833 10.4167 39.5833 10.4167C39.5833 10.4167 36.449 9.02604 33.3333 9.375C30.2177 9.72396 26.3792 12.9 26.3792 12.9L37.5 20.8333L37.5 20.8333Z" id="Shape" fill="#AA2C2C" stroke="none" />
    <path d="M46.2917 26.1042C44.3854 26.5312 41.7708 26.2604 38.5417 23.9583L37.5 20.8333L26.8229 13.2188C28.1354 12.4167 29.7708 11.6146 31.25 11.4583C34.3646 11.1146 37.5 12.5 37.5 12.5C37.5 12.5 41.0208 14.4792 41.6667 17.7083C42.9063 23.9167 44.8958 25.6875 46.2917 26.1042L46.2917 26.1042Z" id="Shape" fill="#3B2B28" stroke="none" />
    <path d="M39.8792 21.3771C38.9625 18.5385 37.3188 16.424 35.0771 14.9729L33.2844 15.0104L32.0844 13.5375C30.0229 12.8292 27.6427 12.4927 25 12.5C17.499 12.4781 12.1063 15.2302 10.1208 21.3771C9.10104 24.5333 9.20521 28.5719 9.96562 31.2937L12.0917 38.7208C13.0333 41.9844 15.0125 44.8531 17.7302 46.8906L19.375 48.125C20.9979 49.3417 22.9719 50 25 50C27.0281 50 29.0021 49.3417 30.625 48.125L32.2708 46.8906C34.9885 44.8521 36.9677 41.9844 37.9094 38.7208L40.0354 31.2937C40.7958 28.5719 40.899 24.5323 39.8792 21.3771L39.8792 21.3771Z" id="Shape" fill="#FFDBD0" stroke="none" />
    <path d="M24.7292 37.5875C25.1021 37.9937 25.0771 40.1677 24.7292 40.5469C24.3812 40.926 22.9167 39.85 22.9167 39.0667C22.9167 38.2833 24.3562 37.1812 24.7292 37.5875L24.7292 37.5875Z" id="Shape" fill="#FFBCA7" stroke="none" />
    <path d="M12.5 32.2917L12.5 34.375L14.5833 36.4583L18.75 36.4583L20.8333 34.375L20.8333 31.25L19.2708 29.6875L15.1042 29.6875L13.301 30.7958L12.5 32.2917Z" id="Polygon" fill="#F5E9E8" fill-rule="evenodd" stroke="none" />
    <path d="M18.7354 30.2083C18.3021 29.8854 17.7698 29.6875 17.1875 29.6875C16.7146 29.6875 16.2719 29.8135 15.8896 30.0333C15.6771 30.1562 15.7948 30.0323 15.625 30.2083L14.5833 31.25L14.5833 32.2917C14.5833 33.7302 15.749 34.8958 17.1875 34.8958C18.626 34.8958 19.7917 33.7302 19.7917 32.2917L19.7917 30.2083L18.7354 30.2083L18.7354 30.2083Z" id="Shape" fill="#AA2C2C" stroke="none" />
    <path d="M19.7917 29.6875L16.2365 29.5969L14.5833 31.25L14.5833 32.2917L15.7208 32.2917C15.9365 32.8969 16.5083 33.3333 17.1875 33.3333C17.8667 33.3333 18.4396 32.8969 18.6542 32.2917L19.7917 32.2917L19.7917 29.6875L19.7917 29.6875Z" id="Shape" fill="#3B2B28" stroke="none" />
    <path d="M19.4865 29.1667L14.5833 29.1667L12.7875 30.2635L12.7885 30.2646L12.7885 30.2635L12.5 32.2917L13.2521 31.1927L13.2542 31.1948L15.2271 30.2083L19.0552 30.2083L20.9854 32.1396L21.7229 31.4021L19.4865 29.1667Z" id="Polygon" fill="#212121" fill-rule="evenodd" stroke="none" />
    <path d="M37.5 32.2917L37.5 34.375L35.4167 36.4583L31.25 36.4583L29.1667 34.375L29.1667 31.25L30.7292 29.6875L34.8958 29.6875L36.699 30.7958L37.5 32.2917Z" id="Polygon" fill="#F5E9E8" fill-rule="evenodd" stroke="none" />
    <path d="M31.2646 30.2083C31.6979 29.8854 32.2302 29.6875 32.8125 29.6875C33.2854 29.6875 33.7281 29.8135 34.1104 30.0333C34.3229 30.1562 34.2052 30.0323 34.375 30.2083L35.4167 31.25L35.4167 32.2917C35.4167 33.7302 34.251 34.8958 32.8125 34.8958C31.374 34.8958 30.2083 33.7302 30.2083 32.2917L30.2083 30.2083L31.2646 30.2083L31.2646 30.2083Z" id="Shape" fill="#AA2C2C" stroke="none" />
    <path d="M30.2083 29.6875L33.7635 29.5969L35.4167 31.25L35.4167 32.2917L34.2792 32.2917C34.0635 32.8969 33.4917 33.3333 32.8125 33.3333C32.1333 33.3333 31.5604 32.8969 31.3458 32.2917L30.2083 32.2917L30.2083 29.6875L30.2083 29.6875Z" id="Shape" fill="#3B2B28" stroke="none" />
    <path d="M30.5135 29.1667L35.4167 29.1667L37.2125 30.2635L37.2115 30.2646L37.2115 30.2635L37.5 32.2917L36.7479 31.1927L36.7458 31.1948L34.7729 30.2083L30.9448 30.2083L29.0146 32.1396L28.2771 31.4021L30.5135 29.1667Z" id="Polygon" fill="#212121" fill-rule="evenodd" stroke="none" />
    <path d="M11.4583 22.9167L16.6667 27.0833L21.875 29.1667L19.7917 27.0833L11.4583 22.9167Z" id="Polygon" fill="#212121" fill-rule="evenodd" stroke="none" />
    <path d="M38.5417 22.9167L33.3333 27.0833L28.125 29.1667L30.2083 27.0833L38.5417 22.9167Z" id="Polygon" fill="#212121" fill-rule="evenodd" stroke="none" />
    <path d="M16.6667 32.2917C16.6667 31.7164 17.133 31.25 17.7083 31.25C18.2836 31.25 18.75 31.7164 18.75 32.2917C18.75 32.867 18.2836 33.3333 17.7083 33.3333C17.133 33.3333 16.6667 32.867 16.6667 32.2917Z" id="Circle" fill="#F5E9E8" fill-rule="evenodd" stroke="none" />
    <path d="M32.2917 32.2917C32.2917 31.7164 32.758 31.25 33.3333 31.25C33.9086 31.25 34.375 31.7164 34.375 32.2917C34.375 32.867 33.9086 33.3333 33.3333 33.3333C32.758 33.3333 32.2917 32.867 32.2917 32.2917Z" id="Circle" fill="#F5E9E8" fill-rule="evenodd" stroke="none" />
    <path d="M21.875 42.7083L28.125 42.7083L28.125 44.7917L21.875 44.7917L21.875 42.7083Z" id="Rectangle" fill="#FFBCA7" fill-rule="evenodd" stroke="none" />
    <path d="M44.7813 5.21875C44.7083 5.375 43.9375 6.85417 42.7083 8.33333C42.4271 8.66667 42.125 9 41.8125 9.3125C41.6354 9.48958 41.4479 9.66667 41.2604 9.82292C40.9896 10.0521 40.7083 10.2708 40.4167 10.4687C40.2917 10.5521 40.1563 10.6354 40.0313 10.7083C39.25 11.1667 38.3958 11.4583 37.5 11.4583C37.0313 11.4583 36.2917 11.6146 35.4375 11.8229C34.2813 11.5313 32.7604 11.2917 31.25 11.4583C30.5417 11.5313 29.9271 11.6875 29.3021 11.9375L29.2917 11.9479C28.8229 12.125 28.3542 12.3542 27.8438 12.6354C26.6042 12.5104 25.1354 12.7292 23.9583 12.9792L23.9479 12.9792C22.7604 13.2396 21.875 13.5417 21.875 13.5417C21.875 13.5417 22.9167 8.33333 25 6.25C26.0417 5.20833 33.3333 4.16667 35.4167 4.16667C37.5 4.16667 39.5833 6.25 41.6667 6.25C43.625 6.25 44.6562 5.33333 44.7813 5.21875L44.7813 5.21875Z" id="Shape" fill="#AA2C2C" stroke="none" />
    <path d="M42.7083 8.33333C42.4271 8.66667 42.125 9 41.8125 9.3125C41.6354 9.48958 41.4479 9.65625 41.2604 9.82292C40.9896 10.0521 40.7083 10.2708 40.4167 10.4688C40.2917 10.5521 40.1563 10.6354 40.0313 10.7083C39.7604 10.5104 39.5833 10.4167 39.5833 10.4167C39.5833 10.4167 36.4479 9.03125 33.3333 9.375C31.1979 9.61458 29.9062 11.0521 29.3021 11.9375L29.2917 11.9479L29.2865 12.4219L27.8437 12.6354C26.6042 12.5104 25.1354 12.7292 23.9583 12.9792C24.1875 12.3854 24.4583 11.7083 24.75 10.9792C25.1979 9.71875 25.7604 8.48958 26.3854 7.8125C27.5833 7.19792 33.3542 6.25 35.4167 6.25C37.7604 6.25 40.625 8.33333 42.7083 8.33333L42.7083 8.33333Z" id="Shape" fill="#3B2B28" stroke="none" />
    <path d="M40.625 20.8333L35.4167 22.9167C35.4167 22.9167 37.5 19.7917 33.3333 21.875C29.9792 23.5521 33.3333 23.9583 33.3333 23.9583L31.25 25C31.25 25 30.2083 23.9583 28.125 25C29.1667 22.9167 29.1667 21.875 27.0833 22.9167L29.1667 19.7917C29.1667 19.7917 29.7813 21.6979 31.25 18.75C32.2917 16.6667 30.2083 16.6667 30.2083 16.6667L32.0833 13.5417C33.1667 13.9063 34.1667 14.3854 35.0729 14.9792C34.375 15.625 33.3333 17.7083 35.4167 17.7083C34.375 18.75 34.375 19.6771 38.7708 18.8958C38.7917 18.9375 40.625 20.8333 40.625 20.8333L40.625 20.8333Z" id="Shape" fill="#AA2C2C" stroke="none" />
    <path d="M36.6875 16.2104C39.726 19.4 40.0229 25.5208 40.0229 25.5208L40.1094 30.8854C40.1094 31.9906 40.0271 32.8958 39.2458 33.6771L37.4323 35.2604L38.949 35.0135L41.1375 34.1187C42.1125 33.6312 42.7635 32.6698 42.8542 31.5833L42.1146 27.9573C42.499 23.3448 41.3104 18.7375 38.7427 14.8865L38.5417 14.5833L36.6875 16.2104L36.6875 16.2104Z" id="Shape" fill="#3B2B28" stroke="none" />
    <path d="M41.6667 30.5521L41.6667 30.5625C41.6667 31.6667 41.2292 32.7292 40.4479 33.5104L38.9479 35.0104L35.4167 36.4583L38.3646 33.5104C39.1458 32.7292 39.5833 31.6667 39.5833 30.5625L39.5833 26.0417C39.5833 26.0417 39.7188 19.7708 36.9375 16.4896C37.5208 17.1458 38.0521 17.9271 38.5417 18.7396C40.6562 22.3021 41.6667 26.4063 41.6667 30.5521L41.6667 30.5521Z" id="Shape" fill="#AA2C2C" stroke="none" />
  </g>
</svg>